<svg id="svg" version="1.1" width="400" height="566" viewBox="0 0 400 566" xmlns="http://www.w3.org/2000/svg" xmlns:xlink="http://www.w3.org/1999/xlink" ><g id="svgg"><path id="path0" d="M227.000 73.200 C 226.860 73.427,224.888 73.600,222.453 73.600 C 219.291 73.600,217.947 73.755,217.376 74.187 C 216.878 74.564,215.640 74.779,213.924 74.787 C 212.452 74.794,211.136 74.980,211.000 75.200 C 210.864 75.420,209.988 75.600,209.053 75.600 C 208.118 75.600,207.004 75.864,206.576 76.187 C 206.111 76.539,204.888 76.780,203.524 76.787 C 202.272 76.794,201.136 76.980,201.000 77.200 C 200.864 77.420,199.988 77.600,199.053 77.600 C 198.118 77.600,197.004 77.864,196.576 78.187 C 196.149 78.510,195.046 78.780,194.124 78.787 C 193.202 78.794,192.336 78.980,192.200 79.200 C 192.064 79.420,191.368 79.600,190.653 79.600 C 189.938 79.600,189.004 79.864,188.576 80.187 C 188.149 80.510,187.226 80.780,186.524 80.787 C 185.822 80.794,185.136 80.980,185.000 81.200 C 184.864 81.420,184.168 81.600,183.453 81.600 C 182.738 81.600,181.804 81.864,181.376 82.187 C 180.949 82.510,180.116 82.780,179.524 82.787 C 178.932 82.794,178.336 82.980,178.200 83.200 C 178.064 83.420,177.548 83.600,177.053 83.600 C 176.558 83.600,175.804 83.864,175.376 84.187 C 174.949 84.510,174.191 84.780,173.692 84.787 C 173.193 84.794,172.071 85.250,171.200 85.800 C 170.329 86.350,169.159 86.800,168.600 86.800 C 168.041 86.800,166.871 87.250,166.000 87.800 C 165.129 88.350,163.994 88.800,163.478 88.800 C 162.962 88.800,162.117 89.250,161.600 89.800 C 161.083 90.350,160.238 90.800,159.722 90.800 C 159.206 90.800,158.071 91.250,157.200 91.800 C 156.329 92.350,155.374 92.800,155.078 92.800 C 154.782 92.800,154.117 93.250,153.600 93.800 C 153.056 94.379,152.214 94.800,151.600 94.800 C 150.986 94.800,150.144 95.221,149.600 95.800 C 149.083 96.350,148.353 96.800,147.976 96.800 C 147.600 96.800,146.997 97.250,146.637 97.800 C 146.276 98.350,145.718 98.800,145.397 98.800 C 144.523 98.800,141.074 101.037,140.497 101.979 C 140.220 102.430,139.673 102.800,139.282 102.800 C 138.890 102.800,137.677 103.718,136.585 104.841 C 135.493 105.963,133.880 107.336,133.000 107.891 C 131.330 108.946,129.639 110.704,129.614 111.413 C 129.606 111.639,128.520 112.894,127.200 114.200 C 125.880 115.506,124.800 116.885,124.800 117.264 C 124.800 117.643,124.625 118.061,124.411 118.193 C 122.740 119.226,122.374 123.525,123.900 124.195 C 124.395 124.412,124.800 124.786,124.800 125.025 C 124.800 125.265,125.250 125.883,125.800 126.400 C 126.350 126.917,126.800 127.617,126.800 127.957 C 126.800 128.297,127.222 128.940,127.737 129.387 C 128.252 129.834,129.131 130.920,129.689 131.800 C 130.247 132.680,131.176 133.836,131.752 134.370 C 132.328 134.903,132.800 135.617,132.800 135.957 C 132.800 136.297,133.222 136.940,133.737 137.387 C 134.252 137.834,135.134 138.920,135.696 139.800 C 136.259 140.680,137.637 142.293,138.759 143.385 C 139.882 144.477,140.800 145.666,140.800 146.029 C 140.800 146.391,141.250 147.026,141.800 147.439 C 142.350 147.852,142.800 148.472,142.800 148.816 C 142.800 149.161,143.430 150.054,144.200 150.800 C 144.970 151.546,145.600 152.392,145.600 152.678 C 145.600 152.965,146.320 153.920,147.200 154.800 C 148.080 155.680,148.800 156.631,148.800 156.913 C 148.800 157.194,149.880 158.494,151.200 159.800 C 152.520 161.106,153.600 162.406,153.600 162.687 C 153.600 162.969,154.320 163.920,155.200 164.800 C 156.080 165.680,156.800 166.639,156.800 166.930 C 156.800 167.222,157.250 167.883,157.800 168.400 C 158.350 168.917,158.800 169.617,158.800 169.957 C 158.800 172.195,163.465 173.247,165.200 171.400 C 165.717 170.850,166.423 170.397,166.770 170.393 C 167.116 170.389,167.824 169.939,168.342 169.393 C 168.927 168.776,169.728 168.400,170.455 168.400 C 171.126 168.400,171.723 168.144,171.855 167.800 C 171.982 167.470,172.395 167.200,172.773 167.200 C 173.151 167.200,173.883 166.750,174.400 166.200 C 174.944 165.621,175.786 165.200,176.400 165.200 C 177.014 165.200,177.856 164.779,178.400 164.200 C 178.963 163.601,179.783 163.200,180.446 163.200 C 181.055 163.200,181.664 163.020,181.800 162.800 C 181.936 162.580,182.402 162.400,182.836 162.400 C 183.270 162.400,183.729 162.130,183.855 161.800 C 184.011 161.394,184.647 161.200,185.819 161.200 C 186.773 161.200,187.664 161.020,187.800 160.800 C 187.936 160.580,188.555 160.400,189.175 160.400 C 189.795 160.400,190.526 160.130,190.800 159.800 C 191.074 159.470,191.805 159.200,192.425 159.200 C 193.045 159.200,193.664 159.020,193.800 158.800 C 193.936 158.580,195.005 158.400,196.175 158.400 C 197.578 158.400,198.472 158.196,198.800 157.800 C 199.128 157.404,200.022 157.200,201.425 157.200 C 202.595 157.200,203.664 157.020,203.800 156.800 C 203.936 156.580,205.302 156.400,206.836 156.400 C 208.946 156.400,209.681 156.254,209.855 155.800 C 210.048 155.297,211.267 155.200,217.394 155.200 C 223.402 155.200,224.791 155.307,225.200 155.800 C 225.528 156.196,226.422 156.400,227.825 156.400 C 228.995 156.400,230.064 156.580,230.200 156.800 C 230.336 157.020,230.955 157.200,231.575 157.200 C 232.195 157.200,232.926 157.470,233.200 157.800 C 233.474 158.130,234.308 158.400,235.054 158.400 C 235.800 158.400,236.723 158.567,237.105 158.771 C 237.487 158.975,238.070 159.247,238.400 159.375 C 238.730 159.504,239.540 159.954,240.200 160.375 C 240.860 160.797,241.678 161.155,242.019 161.171 C 242.359 161.187,243.341 161.920,244.200 162.800 C 245.059 163.680,245.951 164.400,246.181 164.400 C 246.864 164.401,248.601 166.084,249.689 167.800 C 250.247 168.680,251.176 169.836,251.752 170.370 C 252.328 170.903,252.800 171.698,252.800 172.135 C 252.800 173.134,254.044 176.000,254.477 176.000 C 254.655 176.000,254.800 176.619,254.800 177.376 C 254.800 178.133,254.980 178.864,255.200 179.000 C 255.441 179.149,255.600 181.930,255.600 186.000 C 255.600 190.070,255.441 192.851,255.200 193.000 C 254.980 193.136,254.794 194.002,254.787 194.924 C 254.780 195.846,254.510 196.949,254.187 197.376 C 253.864 197.804,253.600 198.481,253.600 198.882 C 253.600 199.283,253.433 199.923,253.229 200.305 C 253.025 200.687,252.753 201.270,252.625 201.600 C 252.496 201.930,252.046 202.740,251.625 203.400 C 251.203 204.060,250.845 204.893,250.829 205.251 C 250.813 205.609,250.530 206.126,250.200 206.400 C 249.870 206.674,249.600 207.253,249.600 207.687 C 249.600 208.121,249.195 209.041,248.700 209.730 C 248.205 210.419,247.620 211.276,247.400 211.635 C 247.180 211.993,246.505 213.028,245.900 213.935 C 245.295 214.842,244.800 215.826,244.800 216.122 C 244.800 216.418,244.335 217.097,243.767 217.630 C 242.721 218.612,239.600 223.059,239.600 223.567 C 239.600 223.719,238.970 224.454,238.200 225.200 C 237.430 225.946,236.800 226.827,236.800 227.158 C 236.800 227.489,235.900 228.604,234.800 229.637 C 233.700 230.670,232.800 231.772,232.800 232.088 C 232.800 232.403,232.328 233.097,231.752 233.630 C 231.176 234.164,230.254 235.320,229.703 236.200 C 229.152 237.080,228.228 238.277,227.650 238.860 C 224.940 241.593,223.696 243.101,223.184 244.275 C 222.877 244.977,222.216 245.738,221.713 245.967 C 221.211 246.196,220.800 246.678,220.800 247.038 C 220.800 247.399,220.080 248.414,219.200 249.294 C 218.320 250.174,217.600 251.108,217.600 251.369 C 217.600 251.630,216.950 252.463,216.156 253.222 C 214.538 254.767,212.800 257.305,212.800 258.122 C 212.800 258.418,212.328 259.097,211.752 259.630 C 210.495 260.794,208.800 263.373,208.800 264.122 C 208.800 264.418,208.350 265.083,207.800 265.600 C 207.250 266.117,206.800 266.857,206.800 267.246 C 206.800 267.635,206.631 268.057,206.425 268.184 C 205.937 268.486,204.800 270.772,204.800 271.452 C 204.800 271.743,204.350 272.276,203.800 272.637 C 203.065 273.118,202.800 273.645,202.800 274.622 C 202.800 275.354,202.631 276.057,202.425 276.184 C 201.951 276.478,200.800 278.763,200.800 279.412 C 200.800 279.682,200.530 280.126,200.200 280.400 C 199.870 280.674,199.600 281.264,199.600 281.711 C 199.600 282.159,199.150 283.114,198.600 283.836 C 198.050 284.557,197.600 285.457,197.600 285.836 C 197.600 286.214,197.150 287.114,196.600 287.836 C 196.050 288.557,195.600 289.298,195.600 289.483 C 195.600 290.607,187.229 297.600,185.885 297.600 C 185.592 297.600,185.004 297.864,184.576 298.187 C 184.149 298.510,183.571 298.780,183.292 298.787 C 183.013 298.794,182.071 299.250,181.200 299.800 C 180.329 300.350,179.160 300.800,178.603 300.800 C 177.590 300.800,177.369 300.879,174.868 302.132 C 174.042 302.546,172.568 302.800,170.991 302.800 C 169.592 302.800,168.336 302.980,168.200 303.200 C 168.053 303.438,165.537 303.600,162.000 303.600 C 158.463 303.600,155.947 303.438,155.800 303.200 C 155.664 302.980,154.381 302.800,152.948 302.800 C 151.166 302.800,150.153 302.610,149.743 302.200 C 149.413 301.870,148.716 301.600,148.195 301.600 C 147.674 301.600,147.136 301.420,147.000 301.200 C 146.864 300.980,146.490 300.800,146.168 300.800 C 145.847 300.800,144.871 300.350,144.000 299.800 C 143.129 299.250,142.174 298.800,141.878 298.800 C 141.582 298.800,140.917 298.350,140.400 297.800 C 139.883 297.250,139.214 296.800,138.913 296.800 C 138.370 296.800,137.601 296.276,136.681 295.279 C 136.416 294.992,135.417 293.922,134.461 292.902 C 133.504 291.881,132.560 290.676,132.362 290.223 C 132.164 289.770,131.836 289.130,131.634 288.800 C 131.432 288.470,130.977 287.570,130.622 286.800 C 130.268 286.030,129.831 285.130,129.651 284.800 C 128.593 282.856,128.400 282.280,128.400 281.054 C 128.400 280.308,128.130 279.474,127.800 279.200 C 127.470 278.926,127.200 278.195,127.200 277.575 C 127.200 276.955,127.020 276.336,126.800 276.200 C 126.580 276.064,126.400 275.445,126.400 274.825 C 126.400 274.205,126.130 273.474,125.800 273.200 C 125.470 272.926,125.200 272.335,125.200 271.885 C 125.200 270.870,123.961 268.000,123.523 268.000 C 123.345 268.000,123.187 267.415,123.171 266.700 C 123.155 265.985,122.797 264.860,122.375 264.200 C 121.954 263.540,121.498 262.730,121.362 262.400 C 120.954 261.412,120.002 259.441,119.622 258.800 C 119.427 258.470,118.977 257.570,118.622 256.800 C 118.268 256.030,117.818 255.130,117.622 254.800 C 117.427 254.470,116.977 253.533,116.623 252.717 C 116.268 251.901,115.803 251.126,115.589 250.993 C 115.375 250.861,115.200 250.475,115.200 250.136 C 115.200 249.797,114.570 248.890,113.800 248.120 C 113.030 247.350,112.400 246.505,112.400 246.241 C 112.400 245.567,109.488 242.800,108.778 242.800 C 108.455 242.800,107.852 242.350,107.439 241.800 C 106.937 241.132,106.299 240.800,105.515 240.800 C 104.871 240.800,104.073 240.530,103.743 240.200 C 103.342 239.799,102.342 239.600,100.733 239.600 C 99.374 239.600,97.817 239.862,97.162 240.200 C 96.523 240.530,95.415 241.095,94.700 241.456 C 92.957 242.335,90.800 244.405,90.800 245.198 C 90.800 245.551,90.599 246.041,90.354 246.286 C 90.108 246.532,89.703 247.078,89.454 247.501 C 87.788 250.321,86.215 252.471,85.562 252.820 C 85.143 253.045,84.800 253.540,84.800 253.922 C 84.800 254.303,83.000 256.408,80.800 258.600 C 78.600 260.792,76.800 262.899,76.800 263.283 C 76.800 263.667,76.350 264.276,75.800 264.637 C 75.072 265.114,74.800 265.646,74.800 266.597 C 74.800 267.315,74.530 268.126,74.200 268.400 C 73.336 269.117,73.336 276.879,74.200 277.743 C 74.530 278.073,74.800 278.871,74.800 279.515 C 74.800 280.299,75.132 280.937,75.800 281.439 C 76.350 281.852,76.800 282.471,76.800 282.814 C 76.800 283.482,79.579 286.400,80.217 286.400 C 80.428 286.401,81.123 286.851,81.762 287.400 C 82.401 287.950,83.131 288.400,83.384 288.400 C 83.636 288.400,84.454 289.030,85.200 289.800 C 85.946 290.570,86.798 291.200,87.092 291.200 C 89.779 291.200,90.467 295.002,88.182 297.218 C 87.422 297.954,86.800 298.871,86.800 299.255 C 86.800 299.639,86.631 300.057,86.425 300.184 C 84.510 301.368,84.090 309.292,85.800 312.000 C 86.350 312.871,86.800 313.774,86.800 314.006 C 86.800 314.533,87.891 316.309,88.949 317.505 C 89.566 318.204,89.641 318.519,89.275 318.885 C 88.954 319.206,88.800 321.156,88.800 324.888 C 88.800 330.906,89.120 331.934,91.752 334.370 C 92.328 334.903,92.800 335.605,92.800 335.930 C 92.800 336.254,93.700 337.383,94.800 338.437 C 96.973 340.520,97.609 343.231,96.200 344.400 C 95.858 344.684,95.600 345.556,95.600 346.425 C 95.600 347.265,95.420 348.064,95.200 348.200 C 93.759 349.090,94.988 372.000,96.477 372.000 C 96.655 372.000,96.800 372.242,96.800 372.539 C 96.800 374.289,104.589 383.200,106.119 383.200 C 106.440 383.200,106.926 383.470,107.200 383.800 C 107.474 384.130,108.205 384.400,108.825 384.400 C 109.445 384.400,110.064 384.580,110.200 384.800 C 110.336 385.020,110.955 385.200,111.575 385.200 C 112.195 385.200,112.926 385.470,113.200 385.800 C 113.574 386.250,114.578 386.400,117.225 386.400 C 119.165 386.400,120.858 386.570,120.986 386.777 C 121.327 387.330,130.414 387.286,131.085 386.729 C 131.496 386.388,131.750 386.390,132.097 386.737 C 132.665 387.305,134.661 387.348,135.000 386.800 C 135.146 386.565,137.521 386.400,140.775 386.400 C 145.200 386.400,146.401 386.280,146.800 385.800 C 147.165 385.360,148.133 385.200,150.425 385.200 C 152.145 385.200,153.664 385.020,153.800 384.800 C 153.936 384.580,155.302 384.400,156.836 384.400 C 158.946 384.400,159.681 384.254,159.855 383.800 C 160.024 383.362,160.714 383.200,162.419 383.200 C 163.703 383.200,164.864 383.020,165.000 382.800 C 165.136 382.580,166.232 382.400,167.436 382.400 C 169.013 382.400,169.690 382.232,169.855 381.800 C 170.011 381.394,170.647 381.200,171.819 381.200 C 172.773 381.200,173.664 381.020,173.800 380.800 C 173.936 380.580,174.852 380.400,175.836 380.400 C 177.057 380.400,177.698 380.210,177.855 379.800 C 178.011 379.394,178.647 379.200,179.819 379.200 C 180.773 379.200,181.664 379.020,181.800 378.800 C 181.936 378.580,183.005 378.400,184.175 378.400 C 185.578 378.400,186.472 378.196,186.800 377.800 C 187.102 377.436,187.978 377.200,189.025 377.200 C 189.975 377.200,190.864 377.020,191.000 376.800 C 191.136 376.580,191.935 376.400,192.775 376.400 C 193.644 376.400,194.516 376.142,194.800 375.800 C 195.074 375.470,195.805 375.200,196.425 375.200 C 197.045 375.200,197.664 375.020,197.800 374.800 C 197.936 374.580,198.852 374.400,199.836 374.400 C 201.057 374.400,201.698 374.210,201.855 373.800 C 201.996 373.433,202.603 373.200,203.419 373.200 C 204.153 373.200,204.864 373.020,205.000 372.800 C 205.136 372.580,205.935 372.400,206.775 372.400 C 207.644 372.400,208.516 372.142,208.800 371.800 C 209.074 371.470,209.805 371.200,210.425 371.200 C 211.045 371.200,211.664 371.020,211.800 370.800 C 211.936 370.580,212.555 370.400,213.175 370.400 C 213.795 370.400,214.526 370.130,214.800 369.800 C 215.102 369.436,215.978 369.200,217.025 369.200 C 217.975 369.200,218.864 369.020,219.000 368.800 C 219.136 368.580,219.782 368.400,220.436 368.400 C 221.124 368.400,221.722 368.147,221.855 367.800 C 221.996 367.433,222.603 367.200,223.419 367.200 C 224.153 367.200,224.864 367.020,225.000 366.800 C 225.136 366.580,225.782 366.400,226.436 366.400 C 227.124 366.400,227.722 366.147,227.855 365.800 C 228.011 365.394,228.647 365.200,229.819 365.200 C 230.773 365.200,231.664 365.020,231.800 364.800 C 231.936 364.580,232.555 364.400,233.175 364.400 C 233.795 364.400,234.526 364.130,234.800 363.800 C 235.074 363.470,235.805 363.200,236.425 363.200 C 237.045 363.200,237.664 363.020,237.800 362.800 C 237.936 362.580,238.555 362.400,239.175 362.400 C 239.795 362.400,240.526 362.130,240.800 361.800 C 241.074 361.470,241.625 361.200,242.025 361.200 C 242.425 361.200,242.864 361.020,243.000 360.800 C 243.136 360.580,243.782 360.400,244.436 360.400 C 245.124 360.400,245.722 360.147,245.855 359.800 C 245.982 359.469,246.576 359.200,247.181 359.200 C 248.319 359.200,250.612 358.228,251.016 357.575 C 251.143 357.369,251.745 357.200,252.354 357.200 C 253.017 357.200,253.837 356.799,254.400 356.200 C 254.963 355.601,255.783 355.200,256.446 355.200 C 257.055 355.200,257.664 355.020,257.800 354.800 C 257.936 354.580,258.545 354.400,259.154 354.400 C 259.817 354.400,260.637 353.999,261.200 353.400 C 261.753 352.812,262.585 352.400,263.221 352.400 C 263.815 352.400,264.526 352.130,264.800 351.800 C 265.074 351.470,265.548 351.200,265.854 351.200 C 268.065 351.200,270.400 348.606,270.400 346.149 C 270.400 344.993,270.580 343.936,270.800 343.800 C 271.050 343.646,271.200 339.746,271.200 333.425 C 271.200 324.911,271.296 323.219,271.800 322.800 C 272.196 322.472,272.400 321.578,272.400 320.175 C 272.400 319.005,272.580 317.936,272.800 317.800 C 273.020 317.664,273.206 316.888,273.213 316.076 C 273.220 315.264,273.490 314.251,273.813 313.824 C 274.136 313.396,274.400 312.642,274.400 312.147 C 274.400 311.652,274.580 311.136,274.800 311.000 C 275.020 310.864,275.200 309.964,275.200 309.000 C 275.200 308.036,275.369 307.143,275.575 307.016 C 276.104 306.689,277.200 304.404,277.200 303.628 C 277.200 303.272,278.100 301.207,279.200 299.040 C 280.300 296.873,281.200 294.704,281.200 294.220 C 281.200 293.735,281.650 292.917,282.200 292.400 C 282.750 291.883,283.200 291.241,283.200 290.972 C 283.200 290.704,283.647 290.060,284.193 289.542 C 284.739 289.024,285.189 288.313,285.193 287.962 C 285.197 287.611,285.574 286.986,286.031 286.572 C 286.488 286.159,287.293 284.909,287.819 283.796 C 288.346 282.683,289.322 281.250,289.988 280.611 C 290.655 279.973,291.200 279.237,291.200 278.976 C 291.200 278.716,292.095 277.624,293.190 276.551 C 294.284 275.478,295.184 274.323,295.190 273.985 C 295.195 273.647,296.100 272.483,297.200 271.400 C 298.300 270.317,299.200 269.226,299.200 268.978 C 299.200 268.729,303.970 263.751,309.800 257.916 C 315.630 252.081,320.400 247.053,320.400 246.743 C 320.400 246.434,321.750 244.839,323.400 243.200 C 325.050 241.561,326.400 240.012,326.400 239.757 C 326.400 239.502,326.758 239.200,327.195 239.085 C 327.633 238.971,328.158 238.455,328.363 237.939 C 328.567 237.422,329.560 236.152,330.567 235.115 C 331.575 234.078,332.400 232.988,332.400 232.693 C 332.400 232.398,333.030 231.546,333.800 230.800 C 334.570 230.054,335.200 229.245,335.200 229.002 C 335.200 228.760,335.920 227.812,336.800 226.896 C 337.680 225.980,338.400 224.985,338.400 224.685 C 338.400 224.385,338.850 223.717,339.400 223.200 C 339.950 222.683,340.400 222.044,340.400 221.779 C 340.400 221.515,340.665 221.078,340.989 220.809 C 341.840 220.103,349.206 205.161,349.203 204.149 C 349.201 203.681,349.470 203.074,349.800 202.800 C 350.130 202.526,350.400 201.795,350.400 201.175 C 350.400 200.555,350.580 199.936,350.800 199.800 C 351.020 199.664,351.200 199.045,351.200 198.425 C 351.200 197.805,351.470 197.074,351.800 196.800 C 352.142 196.516,352.400 195.644,352.400 194.775 C 352.400 193.935,352.580 193.136,352.800 193.000 C 353.020 192.864,353.206 191.818,353.213 190.676 C 353.220 189.489,353.477 188.268,353.813 187.824 C 354.262 187.229,354.400 185.771,354.400 181.604 C 354.400 178.196,354.564 175.996,354.838 175.722 C 355.121 175.439,355.183 174.390,355.012 172.742 C 354.868 171.344,354.662 167.380,354.556 163.933 C 354.407 159.121,354.228 157.555,353.781 157.184 C 353.377 156.849,353.200 155.872,353.200 153.975 C 353.200 152.475,353.020 151.136,352.800 151.000 C 352.580 150.864,352.400 149.876,352.400 148.805 C 352.400 147.607,352.169 146.626,351.800 146.257 C 351.470 145.927,351.200 145.115,351.200 144.452 C 351.200 143.789,351.020 143.136,350.800 143.000 C 350.580 142.864,350.400 142.065,350.400 141.225 C 350.400 140.356,350.142 139.484,349.800 139.200 C 349.470 138.926,349.200 138.375,349.200 137.975 C 349.200 137.575,349.020 137.136,348.800 137.000 C 348.580 136.864,348.400 136.326,348.400 135.805 C 348.400 135.284,348.130 134.587,347.800 134.257 C 347.470 133.927,347.187 133.149,347.171 132.529 C 347.155 131.908,346.797 130.860,346.375 130.200 C 345.954 129.540,345.498 128.730,345.362 128.400 C 344.484 126.270,343.929 125.203,343.589 124.993 C 343.375 124.861,343.200 124.429,343.200 124.032 C 343.200 123.636,342.750 122.974,342.200 122.561 C 341.650 122.148,341.200 121.643,341.200 121.439 C 341.200 120.765,339.852 118.000,339.523 118.000 C 339.345 118.000,339.200 117.671,339.200 117.270 C 339.200 116.868,338.750 116.117,338.200 115.600 C 337.650 115.083,337.200 114.395,337.200 114.070 C 337.200 113.746,336.300 112.617,335.200 111.563 C 334.100 110.508,333.200 109.408,333.200 109.118 C 333.200 108.433,319.555 94.800,318.869 94.800 C 318.581 94.800,317.773 94.198,317.073 93.463 C 316.373 92.727,315.330 91.872,314.756 91.563 C 313.224 90.737,310.233 88.730,309.992 88.365 C 309.877 88.192,309.337 87.855,308.792 87.616 C 308.246 87.378,307.080 86.653,306.200 86.005 C 305.320 85.357,304.371 84.821,304.092 84.813 C 303.813 84.806,302.871 84.350,302.000 83.800 C 301.129 83.250,299.872 82.800,299.208 82.800 C 298.544 82.800,298.000 82.655,298.000 82.477 C 298.000 82.169,295.254 80.800,294.637 80.800 C 294.475 80.800,294.073 80.530,293.743 80.200 C 293.413 79.870,292.716 79.600,292.195 79.600 C 291.674 79.600,291.136 79.420,291.000 79.200 C 290.864 78.980,290.211 78.800,289.548 78.800 C 288.885 78.800,288.073 78.530,287.743 78.200 C 287.413 77.870,286.716 77.600,286.195 77.600 C 285.674 77.600,285.136 77.420,285.000 77.200 C 284.864 76.980,283.998 76.794,283.076 76.787 C 282.154 76.780,281.051 76.510,280.624 76.187 C 280.196 75.864,279.262 75.600,278.547 75.600 C 277.832 75.600,277.136 75.420,277.000 75.200 C 276.864 74.980,275.761 74.800,274.548 74.800 C 273.121 74.800,272.131 74.588,271.743 74.200 C 271.318 73.775,270.282 73.600,268.195 73.600 C 266.574 73.600,265.136 73.420,265.000 73.200 C 264.841 72.943,258.070 72.800,246.000 72.800 C 233.930 72.800,227.159 72.943,227.000 73.200 M226.576 390.187 C 226.149 390.510,225.046 390.780,224.124 390.787 C 223.202 390.794,222.336 390.980,222.200 391.200 C 222.064 391.420,221.368 391.600,220.653 391.600 C 219.938 391.600,219.004 391.864,218.576 392.187 C 218.149 392.510,217.571 392.780,217.292 392.787 C 217.013 392.794,216.071 393.250,215.200 393.800 C 214.329 394.350,213.374 394.800,213.078 394.800 C 212.782 394.800,212.117 395.250,211.600 395.800 C 211.083 396.350,210.416 396.800,210.116 396.800 C 209.448 396.800,201.600 404.717,201.600 405.392 C 201.600 405.658,201.285 406.163,200.900 406.513 C 200.515 406.863,199.864 407.836,199.454 408.675 C 199.043 409.514,198.458 410.678,198.154 411.262 C 197.849 411.846,197.600 412.690,197.600 413.138 C 197.600 413.586,197.420 414.064,197.200 414.200 C 196.980 414.336,196.794 414.932,196.787 415.524 C 196.780 416.116,196.510 416.949,196.187 417.376 C 195.862 417.806,195.600 419.002,195.600 420.053 C 195.600 421.098,195.420 422.064,195.200 422.200 C 194.956 422.351,194.800 425.396,194.800 430.000 C 194.800 434.604,194.956 437.649,195.200 437.800 C 195.420 437.936,195.600 438.902,195.600 439.947 C 195.600 440.998,195.862 442.194,196.187 442.624 C 196.510 443.051,196.780 444.079,196.787 444.908 C 196.795 445.809,197.202 447.053,197.800 448.000 C 198.350 448.871,198.800 449.771,198.800 450.000 C 198.800 450.229,199.250 451.129,199.800 452.000 C 200.350 452.871,200.800 453.807,200.800 454.079 C 200.800 454.352,201.215 454.940,201.721 455.387 C 202.228 455.834,203.177 457.010,203.831 458.000 C 204.484 458.990,205.408 459.973,205.885 460.184 C 206.361 460.396,206.834 460.888,206.937 461.279 C 207.039 461.670,207.581 462.165,208.141 462.378 C 208.701 462.591,209.683 463.313,210.323 463.982 C 210.963 464.652,211.751 465.200,212.074 465.200 C 212.396 465.200,213.083 465.650,213.600 466.200 C 214.163 466.799,214.983 467.200,215.646 467.200 C 216.255 467.200,216.857 467.369,216.984 467.575 C 217.440 468.312,219.750 469.200,221.212 469.200 C 222.049 469.200,222.921 469.463,223.200 469.800 C 223.484 470.142,224.356 470.400,225.225 470.400 C 226.065 470.400,226.864 470.580,227.000 470.800 C 227.150 471.043,230.063 471.200,234.400 471.200 C 238.737 471.200,241.650 471.043,241.800 470.800 C 241.936 470.580,243.005 470.400,244.175 470.400 C 245.578 470.400,246.472 470.196,246.800 469.800 C 247.079 469.463,247.951 469.200,248.788 469.200 C 250.250 469.200,252.560 468.312,253.016 467.575 C 253.143 467.369,253.745 467.200,254.354 467.200 C 255.017 467.200,255.837 466.799,256.400 466.200 C 256.917 465.650,257.655 465.200,258.041 465.200 C 258.426 465.200,259.096 464.750,259.529 464.200 C 259.961 463.650,260.564 463.200,260.869 463.200 C 261.502 463.200,266.400 458.391,266.400 457.770 C 266.400 457.545,267.024 456.740,267.787 455.981 C 268.550 455.221,269.180 454.296,269.187 453.924 C 269.194 453.552,269.375 453.139,269.589 453.007 C 269.929 452.797,270.484 451.730,271.362 449.600 C 271.498 449.270,271.954 448.460,272.375 447.800 C 272.797 447.140,273.155 445.857,273.171 444.949 C 273.188 444.001,273.455 443.086,273.800 442.800 C 274.217 442.454,274.400 441.533,274.400 439.775 C 274.400 438.385,274.580 437.136,274.800 437.000 C 275.039 436.853,275.200 434.270,275.200 430.600 C 275.200 426.930,275.039 424.347,274.800 424.200 C 274.580 424.064,274.400 422.806,274.400 421.405 C 274.400 419.674,274.208 418.665,273.800 418.257 C 273.470 417.927,273.200 417.115,273.200 416.452 C 273.200 415.789,273.020 415.136,272.800 415.000 C 272.580 414.864,272.400 414.326,272.400 413.805 C 272.400 413.284,272.130 412.587,271.800 412.257 C 271.470 411.927,271.200 411.525,271.200 411.363 C 271.200 410.746,269.831 408.000,269.523 408.000 C 269.345 408.000,269.200 407.671,269.200 407.270 C 269.200 406.868,268.750 406.117,268.200 405.600 C 267.650 405.083,267.200 404.409,267.200 404.102 C 267.200 403.373,260.627 396.800,259.898 396.800 C 259.591 396.800,258.917 396.350,258.400 395.800 C 257.883 395.250,257.132 394.800,256.730 394.800 C 256.329 394.800,256.000 394.655,256.000 394.477 C 256.000 394.057,253.156 392.804,252.166 392.787 C 251.745 392.780,251.051 392.510,250.624 392.187 C 250.196 391.864,249.442 391.600,248.947 391.600 C 248.452 391.600,247.936 391.420,247.800 391.200 C 247.664 390.980,246.618 390.794,245.476 390.787 C 244.289 390.780,243.068 390.523,242.624 390.187 C 242.007 389.721,240.353 389.600,234.600 389.600 C 228.847 389.600,227.193 389.721,226.576 390.187 " stroke="none" fill="#e43c44" fill-rule="evenodd"></path><path id="path1" d="" stroke="none" fill="#e83c44" fill-rule="evenodd"></path><path id="path2" d="" stroke="none" fill="#e83c44" fill-rule="evenodd"></path><path id="path3" d="" stroke="none" fill="#e83c44" fill-rule="evenodd"></path><path id="path4" d="" stroke="none" fill="#e83c44" fill-rule="evenodd"></path></g></svg>